<svg width="20" height="20" viewBox="0 0 20 20" fill="none" xmlns="http://www.w3.org/2000/svg">
<g opacity="0.3">
<path d="M14.5892 11.9226L14.5817 11.9851C12.7492 11.0718 12.5575 10.9502 12.3208 11.3052C12.1567 11.551 11.6783 12.1085 11.5342 12.2735C11.3883 12.436 11.2433 12.4485 10.9958 12.336C10.7458 12.211 9.94333 11.9485 8.99333 11.0985C8.25333 10.436 7.75667 9.62352 7.61 9.37352C7.36583 8.95187 7.87667 8.89187 8.34167 8.01188C8.425 7.83689 8.3825 7.69939 8.32083 7.57522C8.25833 7.45023 7.76083 6.22525 7.5525 5.73692C7.3525 5.25027 7.14667 5.31193 6.9925 5.31193C6.5125 5.27027 6.16167 5.27693 5.8525 5.59859C4.5075 7.0769 4.84667 8.60187 5.9975 10.2235C8.25917 13.1835 9.46417 13.7284 11.6675 14.4851C12.2625 14.6743 12.805 14.6476 13.2342 14.5859C13.7125 14.5101 14.7067 13.9851 14.9142 13.3976C15.1267 12.8101 15.1267 12.3226 15.0642 12.2101C15.0025 12.0976 14.8392 12.0351 14.5892 11.9226Z" fill="white"/>
<path d="M17.1 2.87448C10.6925 -3.31958 0.0883333 1.17284 0.0841667 9.91101C0.0841667 11.6576 0.541667 13.361 1.41333 14.8651L0 20L5.27917 18.6234C11.8667 22.1816 19.9967 17.4567 20 9.91601C20 7.2694 18.9667 4.77861 17.0875 2.90697L17.1 2.87448ZM18.335 9.88852C18.33 16.2492 11.3475 20.2217 5.825 16.9751L5.525 16.7967L2.4 17.6092L3.2375 14.5718L3.03833 14.2593C-0.398333 8.78854 3.55 1.63866 10.06 1.63866C12.2717 1.63866 14.3475 2.50115 15.9108 4.06362C17.4733 5.61276 18.335 7.68856 18.335 9.88852Z" fill="white"/>
</g>
</svg>
